<?xml version="1.0" encoding="UTF-8" standalone="no"?>
<!DOCTYPE svg PUBLIC "-//W3C//DTD SVG 1.1//EN"
 "http://www.w3.org/Graphics/SVG/1.1/DTD/svg11.dtd">
<!-- Generated by graphviz version 7.0.4 (20221203.1631)
 -->
<!-- Pages: 1 -->
<svg width="1157pt" height="128pt"
 viewBox="0.00 0.00 1157.00 128.00" xmlns="http://www.w3.org/2000/svg" xmlns:xlink="http://www.w3.org/1999/xlink">
<g id="graph0" class="graph" transform="scale(1 1) rotate(0) translate(4 124)">
<polygon fill="white" stroke="none" points="-4,4 -4,-124 1153,-124 1153,4 -4,4"/>
<!-- 140650403633760 -->
<g id="node1" class="node">
<title>140650403633760</title>
<polygon fill="none" stroke="black" points="957,-27.5 957,-63.5 1149,-63.5 1149,-27.5 957,-27.5"/>
<text text-anchor="middle" x="969.5" y="-41.8" font-family="Times,serif" font-size="14.00">L</text>
<polyline fill="none" stroke="black" points="982,-27.5 982,-63.5"/>
<text text-anchor="middle" x="1024.5" y="-41.8" font-family="Times,serif" font-size="14.00">data &#45;8.0000</text>
<polyline fill="none" stroke="black" points="1067,-27.5 1067,-63.5"/>
<text text-anchor="middle" x="1108" y="-41.8" font-family="Times,serif" font-size="14.00">grad 1.0000</text>
</g>
<!-- 140650403633760* -->
<g id="node2" class="node">
<title>140650403633760*</title>
<ellipse fill="none" stroke="black" cx="894" cy="-45.5" rx="27" ry="18"/>
<text text-anchor="middle" x="894" y="-41.8" font-family="Times,serif" font-size="14.00">*</text>
</g>
<!-- 140650403633760*&#45;&gt;140650403633760 -->
<g id="edge1" class="edge">
<title>140650403633760*&#45;&gt;140650403633760</title>
<path fill="none" stroke="black" d="M921.28,-45.5C928.52,-45.5 936.85,-45.5 945.72,-45.5"/>
<polygon fill="black" stroke="black" points="945.69,-49 955.69,-45.5 945.69,-42 945.69,-49"/>
</g>
<!-- 140650403634816 -->
<g id="node3" class="node">
<title>140650403634816</title>
<polygon fill="none" stroke="black" points="642,-55.5 642,-91.5 831,-91.5 831,-55.5 642,-55.5"/>
<text text-anchor="middle" x="653.5" y="-69.8" font-family="Times,serif" font-size="14.00">d</text>
<polyline fill="none" stroke="black" points="665,-55.5 665,-91.5"/>
<text text-anchor="middle" x="705" y="-69.8" font-family="Times,serif" font-size="14.00">data 4.0000</text>
<polyline fill="none" stroke="black" points="745,-55.5 745,-91.5"/>
<text text-anchor="middle" x="788" y="-69.8" font-family="Times,serif" font-size="14.00">grad &#45;2.0000</text>
</g>
<!-- 140650403634816&#45;&gt;140650403633760* -->
<g id="edge4" class="edge">
<title>140650403634816&#45;&gt;140650403633760*</title>
<path fill="none" stroke="black" d="M830.65,-56.73C839.58,-55.12 848.23,-53.56 856.11,-52.14"/>
<polygon fill="black" stroke="black" points="856.68,-55.6 865.9,-50.38 855.44,-48.71 856.68,-55.6"/>
</g>
<!-- 140650403634816+ -->
<g id="node4" class="node">
<title>140650403634816+</title>
<ellipse fill="none" stroke="black" cx="579" cy="-73.5" rx="27" ry="18"/>
<text text-anchor="middle" x="579" y="-69.8" font-family="Times,serif" font-size="14.00">+</text>
</g>
<!-- 140650403634816+&#45;&gt;140650403634816 -->
<g id="edge2" class="edge">
<title>140650403634816+&#45;&gt;140650403634816</title>
<path fill="none" stroke="black" d="M606.38,-73.5C613.63,-73.5 621.96,-73.5 630.82,-73.5"/>
<polygon fill="black" stroke="black" points="630.77,-77 640.77,-73.5 630.77,-70 630.77,-77"/>
</g>
<!-- 140650403632800 -->
<g id="node5" class="node">
<title>140650403632800</title>
<polygon fill="none" stroke="black" points="320,-83.5 320,-119.5 516,-119.5 516,-83.5 320,-83.5"/>
<text text-anchor="middle" x="331.5" y="-97.8" font-family="Times,serif" font-size="14.00">c</text>
<polyline fill="none" stroke="black" points="343,-83.5 343,-119.5"/>
<text text-anchor="middle" x="386.5" y="-97.8" font-family="Times,serif" font-size="14.00">data 10.0000</text>
<polyline fill="none" stroke="black" points="430,-83.5 430,-119.5"/>
<text text-anchor="middle" x="473" y="-97.8" font-family="Times,serif" font-size="14.00">grad &#45;2.0000</text>
</g>
<!-- 140650403632800&#45;&gt;140650403634816+ -->
<g id="edge8" class="edge">
<title>140650403632800&#45;&gt;140650403634816+</title>
<path fill="none" stroke="black" d="M515.62,-84.49C524.6,-82.9 533.27,-81.38 541.15,-79.99"/>
<polygon fill="black" stroke="black" points="541.71,-83.44 550.95,-78.26 540.5,-76.55 541.71,-83.44"/>
</g>
<!-- 140650403632368 -->
<g id="node6" class="node">
<title>140650403632368</title>
<polygon fill="none" stroke="black" points="0,-56.5 0,-92.5 194,-92.5 194,-56.5 0,-56.5"/>
<text text-anchor="middle" x="11.5" y="-70.8" font-family="Times,serif" font-size="14.00">b</text>
<polyline fill="none" stroke="black" points="23,-56.5 23,-92.5"/>
<text text-anchor="middle" x="65.5" y="-70.8" font-family="Times,serif" font-size="14.00">data &#45;3.0000</text>
<polyline fill="none" stroke="black" points="108,-56.5 108,-92.5"/>
<text text-anchor="middle" x="151" y="-70.8" font-family="Times,serif" font-size="14.00">grad &#45;4.0000</text>
</g>
<!-- 140650403634480* -->
<g id="node9" class="node">
<title>140650403634480*</title>
<ellipse fill="none" stroke="black" cx="257" cy="-46.5" rx="27" ry="18"/>
<text text-anchor="middle" x="257" y="-42.8" font-family="Times,serif" font-size="14.00">*</text>
</g>
<!-- 140650403632368&#45;&gt;140650403634480* -->
<g id="edge9" class="edge">
<title>140650403632368&#45;&gt;140650403634480*</title>
<path fill="none" stroke="black" d="M193.55,-57.57C202.53,-55.98 211.21,-54.44 219.1,-53.04"/>
<polygon fill="black" stroke="black" points="219.67,-56.49 228.9,-51.3 218.45,-49.6 219.67,-56.49"/>
</g>
<!-- 140650403633952 -->
<g id="node7" class="node">
<title>140650403633952</title>
<polygon fill="none" stroke="black" points="642.5,-0.5 642.5,-36.5 830.5,-36.5 830.5,-0.5 642.5,-0.5"/>
<text text-anchor="middle" x="653" y="-14.8" font-family="Times,serif" font-size="14.00">f</text>
<polyline fill="none" stroke="black" points="663.5,-0.5 663.5,-36.5"/>
<text text-anchor="middle" x="706" y="-14.8" font-family="Times,serif" font-size="14.00">data &#45;2.0000</text>
<polyline fill="none" stroke="black" points="748.5,-0.5 748.5,-36.5"/>
<text text-anchor="middle" x="789.5" y="-14.8" font-family="Times,serif" font-size="14.00">grad 4.0000</text>
</g>
<!-- 140650403633952&#45;&gt;140650403633760* -->
<g id="edge5" class="edge">
<title>140650403633952&#45;&gt;140650403633760*</title>
<path fill="none" stroke="black" d="M830.2,-34.6C839.38,-36.19 848.27,-37.73 856.33,-39.13"/>
<polygon fill="black" stroke="black" points="855.54,-42.55 865.99,-40.81 856.74,-35.65 855.54,-42.55"/>
</g>
<!-- 140650403634480 -->
<g id="node8" class="node">
<title>140650403634480</title>
<polygon fill="none" stroke="black" points="321,-28.5 321,-64.5 515,-64.5 515,-28.5 321,-28.5"/>
<text text-anchor="middle" x="332.5" y="-42.8" font-family="Times,serif" font-size="14.00">e</text>
<polyline fill="none" stroke="black" points="344,-28.5 344,-64.5"/>
<text text-anchor="middle" x="386.5" y="-42.8" font-family="Times,serif" font-size="14.00">data &#45;6.0000</text>
<polyline fill="none" stroke="black" points="429,-28.5 429,-64.5"/>
<text text-anchor="middle" x="472" y="-42.8" font-family="Times,serif" font-size="14.00">grad &#45;2.0000</text>
</g>
<!-- 140650403634480&#45;&gt;140650403634816+ -->
<g id="edge7" class="edge">
<title>140650403634480&#45;&gt;140650403634816+</title>
<path fill="none" stroke="black" d="M514.7,-62.75C523.98,-64.33 532.95,-65.85 541.08,-67.23"/>
<polygon fill="black" stroke="black" points="540.39,-70.66 550.84,-68.89 541.56,-63.76 540.39,-70.66"/>
</g>
<!-- 140650403634480*&#45;&gt;140650403634480 -->
<g id="edge3" class="edge">
<title>140650403634480*&#45;&gt;140650403634480</title>
<path fill="none" stroke="black" d="M284.26,-46.5C291.86,-46.5 300.67,-46.5 310.07,-46.5"/>
<polygon fill="black" stroke="black" points="309.81,-50 319.81,-46.5 309.81,-43 309.81,-50"/>
</g>
<!-- 140650403631936 -->
<g id="node10" class="node">
<title>140650403631936</title>
<polygon fill="none" stroke="black" points="4.5,-1.5 4.5,-37.5 189.5,-37.5 189.5,-1.5 4.5,-1.5"/>
<text text-anchor="middle" x="16" y="-15.8" font-family="Times,serif" font-size="14.00">a</text>
<polyline fill="none" stroke="black" points="27.5,-1.5 27.5,-37.5"/>
<text text-anchor="middle" x="67.5" y="-15.8" font-family="Times,serif" font-size="14.00">data 2.0000</text>
<polyline fill="none" stroke="black" points="107.5,-1.5 107.5,-37.5"/>
<text text-anchor="middle" x="148.5" y="-15.8" font-family="Times,serif" font-size="14.00">grad 6.0000</text>
</g>
<!-- 140650403631936&#45;&gt;140650403634480* -->
<g id="edge6" class="edge">
<title>140650403631936&#45;&gt;140650403634480*</title>
<path fill="none" stroke="black" d="M189.45,-35.13C199.89,-36.91 210.03,-38.64 219.12,-40.2"/>
<polygon fill="black" stroke="black" points="218.46,-43.64 228.91,-41.87 219.64,-36.74 218.46,-43.64"/>
</g>
</g>
</svg>
