<?xml version="1.0" encoding="UTF-8" standalone="no"?>
<!DOCTYPE svg PUBLIC "-//W3C//DTD SVG 1.1//EN"
 "http://www.w3.org/Graphics/SVG/1.1/DTD/svg11.dtd">
<!-- Generated by graphviz version 7.0.4 (20221203.1631)
 -->
<!-- Pages: 1 -->
<svg width="1148pt" height="128pt"
 viewBox="0.00 0.00 1148.00 128.00" xmlns="http://www.w3.org/2000/svg" xmlns:xlink="http://www.w3.org/1999/xlink">
<g id="graph0" class="graph" transform="scale(1 1) rotate(0) translate(4 124)">
<polygon fill="white" stroke="none" points="-4,4 -4,-124 1144,-124 1144,4 -4,4"/>
<!-- 140650403633760 -->
<g id="node1" class="node">
<title>140650403633760</title>
<polygon fill="none" stroke="black" points="948,-27.5 948,-63.5 1140,-63.5 1140,-27.5 948,-27.5"/>
<text text-anchor="middle" x="960.5" y="-41.8" font-family="Times,serif" font-size="14.00">L</text>
<polyline fill="none" stroke="black" points="973,-27.5 973,-63.5"/>
<text text-anchor="middle" x="1015.5" y="-41.8" font-family="Times,serif" font-size="14.00">data &#45;8.0000</text>
<polyline fill="none" stroke="black" points="1058,-27.5 1058,-63.5"/>
<text text-anchor="middle" x="1099" y="-41.8" font-family="Times,serif" font-size="14.00">grad 0.0000</text>
</g>
<!-- 140650403633760* -->
<g id="node2" class="node">
<title>140650403633760*</title>
<ellipse fill="none" stroke="black" cx="885" cy="-45.5" rx="27" ry="18"/>
<text text-anchor="middle" x="885" y="-41.8" font-family="Times,serif" font-size="14.00">*</text>
</g>
<!-- 140650403633760*&#45;&gt;140650403633760 -->
<g id="edge1" class="edge">
<title>140650403633760*&#45;&gt;140650403633760</title>
<path fill="none" stroke="black" d="M912.28,-45.5C919.52,-45.5 927.85,-45.5 936.72,-45.5"/>
<polygon fill="black" stroke="black" points="936.69,-49 946.69,-45.5 936.69,-42 936.69,-49"/>
</g>
<!-- 140650403634816 -->
<g id="node3" class="node">
<title>140650403634816</title>
<polygon fill="none" stroke="black" points="635.5,-55.5 635.5,-91.5 820.5,-91.5 820.5,-55.5 635.5,-55.5"/>
<text text-anchor="middle" x="647" y="-69.8" font-family="Times,serif" font-size="14.00">d</text>
<polyline fill="none" stroke="black" points="658.5,-55.5 658.5,-91.5"/>
<text text-anchor="middle" x="698.5" y="-69.8" font-family="Times,serif" font-size="14.00">data 4.0000</text>
<polyline fill="none" stroke="black" points="738.5,-55.5 738.5,-91.5"/>
<text text-anchor="middle" x="779.5" y="-69.8" font-family="Times,serif" font-size="14.00">grad 0.0000</text>
</g>
<!-- 140650403634816&#45;&gt;140650403633760* -->
<g id="edge4" class="edge">
<title>140650403634816&#45;&gt;140650403633760*</title>
<path fill="none" stroke="black" d="M820.06,-57.05C829.65,-55.32 838.94,-53.64 847.35,-52.12"/>
<polygon fill="black" stroke="black" points="847.86,-55.59 857.08,-50.36 846.61,-48.7 847.86,-55.59"/>
</g>
<!-- 140650403634816+ -->
<g id="node4" class="node">
<title>140650403634816+</title>
<ellipse fill="none" stroke="black" cx="571" cy="-73.5" rx="27" ry="18"/>
<text text-anchor="middle" x="571" y="-69.8" font-family="Times,serif" font-size="14.00">+</text>
</g>
<!-- 140650403634816+&#45;&gt;140650403634816 -->
<g id="edge2" class="edge">
<title>140650403634816+&#45;&gt;140650403634816</title>
<path fill="none" stroke="black" d="M598.29,-73.5C605.99,-73.5 614.91,-73.5 624.39,-73.5"/>
<polygon fill="black" stroke="black" points="624.22,-77 634.22,-73.5 624.22,-70 624.22,-77"/>
</g>
<!-- 140650403632800 -->
<g id="node5" class="node">
<title>140650403632800</title>
<polygon fill="none" stroke="black" points="316,-83.5 316,-119.5 508,-119.5 508,-83.5 316,-83.5"/>
<text text-anchor="middle" x="327.5" y="-97.8" font-family="Times,serif" font-size="14.00">c</text>
<polyline fill="none" stroke="black" points="339,-83.5 339,-119.5"/>
<text text-anchor="middle" x="382.5" y="-97.8" font-family="Times,serif" font-size="14.00">data 10.0000</text>
<polyline fill="none" stroke="black" points="426,-83.5 426,-119.5"/>
<text text-anchor="middle" x="467" y="-97.8" font-family="Times,serif" font-size="14.00">grad 0.0000</text>
</g>
<!-- 140650403632800&#45;&gt;140650403634816+ -->
<g id="edge8" class="edge">
<title>140650403632800&#45;&gt;140650403634816+</title>
<path fill="none" stroke="black" d="M507.95,-84.57C516.87,-82.98 525.49,-81.44 533.33,-80.04"/>
<polygon fill="black" stroke="black" points="533.84,-83.5 543.07,-78.3 532.61,-76.61 533.84,-83.5"/>
</g>
<!-- 140650403632368 -->
<g id="node6" class="node">
<title>140650403632368</title>
<polygon fill="none" stroke="black" points="0,-56.5 0,-92.5 190,-92.5 190,-56.5 0,-56.5"/>
<text text-anchor="middle" x="11.5" y="-70.8" font-family="Times,serif" font-size="14.00">b</text>
<polyline fill="none" stroke="black" points="23,-56.5 23,-92.5"/>
<text text-anchor="middle" x="65.5" y="-70.8" font-family="Times,serif" font-size="14.00">data &#45;3.0000</text>
<polyline fill="none" stroke="black" points="108,-56.5 108,-92.5"/>
<text text-anchor="middle" x="149" y="-70.8" font-family="Times,serif" font-size="14.00">grad 0.0000</text>
</g>
<!-- 140650403634480* -->
<g id="node9" class="node">
<title>140650403634480*</title>
<ellipse fill="none" stroke="black" cx="253" cy="-46.5" rx="27" ry="18"/>
<text text-anchor="middle" x="253" y="-42.8" font-family="Times,serif" font-size="14.00">*</text>
</g>
<!-- 140650403632368&#45;&gt;140650403634480* -->
<g id="edge9" class="edge">
<title>140650403632368&#45;&gt;140650403634480*</title>
<path fill="none" stroke="black" d="M189.9,-57.65C198.81,-56.05 207.43,-54.5 215.28,-53.09"/>
<polygon fill="black" stroke="black" points="215.8,-56.55 225.02,-51.34 214.56,-49.66 215.8,-56.55"/>
</g>
<!-- 140650403633952 -->
<g id="node7" class="node">
<title>140650403633952</title>
<polygon fill="none" stroke="black" points="634,-0.5 634,-36.5 822,-36.5 822,-0.5 634,-0.5"/>
<text text-anchor="middle" x="644.5" y="-14.8" font-family="Times,serif" font-size="14.00">f</text>
<polyline fill="none" stroke="black" points="655,-0.5 655,-36.5"/>
<text text-anchor="middle" x="697.5" y="-14.8" font-family="Times,serif" font-size="14.00">data &#45;2.0000</text>
<polyline fill="none" stroke="black" points="740,-0.5 740,-36.5"/>
<text text-anchor="middle" x="781" y="-14.8" font-family="Times,serif" font-size="14.00">grad 0.0000</text>
</g>
<!-- 140650403633952&#45;&gt;140650403633760* -->
<g id="edge5" class="edge">
<title>140650403633952&#45;&gt;140650403633760*</title>
<path fill="none" stroke="black" d="M821.85,-34.67C830.75,-36.22 839.38,-37.73 847.22,-39.09"/>
<polygon fill="black" stroke="black" points="846.53,-42.53 856.98,-40.79 847.73,-35.63 846.53,-42.53"/>
</g>
<!-- 140650403634480 -->
<g id="node8" class="node">
<title>140650403634480</title>
<polygon fill="none" stroke="black" points="317,-28.5 317,-64.5 507,-64.5 507,-28.5 317,-28.5"/>
<text text-anchor="middle" x="328.5" y="-42.8" font-family="Times,serif" font-size="14.00">e</text>
<polyline fill="none" stroke="black" points="340,-28.5 340,-64.5"/>
<text text-anchor="middle" x="382.5" y="-42.8" font-family="Times,serif" font-size="14.00">data &#45;6.0000</text>
<polyline fill="none" stroke="black" points="425,-28.5 425,-64.5"/>
<text text-anchor="middle" x="466" y="-42.8" font-family="Times,serif" font-size="14.00">grad 0.0000</text>
</g>
<!-- 140650403634480&#45;&gt;140650403634816+ -->
<g id="edge7" class="edge">
<title>140650403634480&#45;&gt;140650403634816+</title>
<path fill="none" stroke="black" d="M506.59,-62.6C515.95,-64.2 525,-65.76 533.21,-67.17"/>
<polygon fill="black" stroke="black" points="532.6,-70.62 543.05,-68.87 533.79,-63.72 532.6,-70.62"/>
</g>
<!-- 140650403634480*&#45;&gt;140650403634480 -->
<g id="edge3" class="edge">
<title>140650403634480*&#45;&gt;140650403634480</title>
<path fill="none" stroke="black" d="M280.28,-46.5C287.79,-46.5 296.46,-46.5 305.7,-46.5"/>
<polygon fill="black" stroke="black" points="305.7,-50 315.7,-46.5 305.7,-43 305.7,-50"/>
</g>
<!-- 140650403631936 -->
<g id="node10" class="node">
<title>140650403631936</title>
<polygon fill="none" stroke="black" points="2.5,-1.5 2.5,-37.5 187.5,-37.5 187.5,-1.5 2.5,-1.5"/>
<text text-anchor="middle" x="14" y="-15.8" font-family="Times,serif" font-size="14.00">a</text>
<polyline fill="none" stroke="black" points="25.5,-1.5 25.5,-37.5"/>
<text text-anchor="middle" x="65.5" y="-15.8" font-family="Times,serif" font-size="14.00">data 2.0000</text>
<polyline fill="none" stroke="black" points="105.5,-1.5 105.5,-37.5"/>
<text text-anchor="middle" x="146.5" y="-15.8" font-family="Times,serif" font-size="14.00">grad 0.0000</text>
</g>
<!-- 140650403631936&#45;&gt;140650403634480* -->
<g id="edge6" class="edge">
<title>140650403631936&#45;&gt;140650403634480*</title>
<path fill="none" stroke="black" d="M187.2,-35.28C197.1,-37 206.71,-38.66 215.36,-40.16"/>
<polygon fill="black" stroke="black" points="214.57,-43.57 225.02,-41.83 215.76,-36.68 214.57,-43.57"/>
</g>
</g>
</svg>
