<?xml version="1.0" encoding="UTF-8" standalone="no"?>
<!DOCTYPE svg PUBLIC "-//W3C//DTD SVG 1.1//EN"
 "http://www.w3.org/Graphics/SVG/1.1/DTD/svg11.dtd">
<!-- Generated by graphviz version 7.0.4 (20221203.1631)
 -->
<!-- Pages: 1 -->
<svg width="1555pt" height="210pt"
 viewBox="0.00 0.00 1555.00 210.00" xmlns="http://www.w3.org/2000/svg" xmlns:xlink="http://www.w3.org/1999/xlink">
<g id="graph0" class="graph" transform="scale(1 1) rotate(0) translate(4 206)">
<polygon fill="white" stroke="none" points="-4,4 -4,-206 1551,-206 1551,4 -4,4"/>
<!-- 140651000828976 -->
<g id="node1" class="node">
<title>140651000828976</title>
<polygon fill="none" stroke="black" points="326,-55.5 326,-91.5 540,-91.5 540,-55.5 326,-55.5"/>
<text text-anchor="middle" x="349.5" y="-69.8" font-family="Times,serif" font-size="14.00">x1w1</text>
<polyline fill="none" stroke="black" points="373,-55.5 373,-91.5"/>
<text text-anchor="middle" x="415.5" y="-69.8" font-family="Times,serif" font-size="14.00">data &#45;6.0000</text>
<polyline fill="none" stroke="black" points="458,-55.5 458,-91.5"/>
<text text-anchor="middle" x="499" y="-69.8" font-family="Times,serif" font-size="14.00">grad 0.5000</text>
</g>
<!-- 140651000830080+ -->
<g id="node5" class="node">
<title>140651000830080+</title>
<ellipse fill="none" stroke="black" cx="603" cy="-100.5" rx="27" ry="18"/>
<text text-anchor="middle" x="603" y="-96.8" font-family="Times,serif" font-size="14.00">+</text>
</g>
<!-- 140651000828976&#45;&gt;140651000830080+ -->
<g id="edge11" class="edge">
<title>140651000828976&#45;&gt;140651000830080+</title>
<path fill="none" stroke="black" d="M539.92,-90.52C548.88,-91.96 557.49,-93.35 565.29,-94.6"/>
<polygon fill="black" stroke="black" points="564.52,-98.02 574.95,-96.15 565.63,-91.11 564.52,-98.02"/>
</g>
<!-- 140651000828976* -->
<g id="node2" class="node">
<title>140651000828976*</title>
<ellipse fill="none" stroke="black" cx="263" cy="-73.5" rx="27" ry="18"/>
<text text-anchor="middle" x="263" y="-69.8" font-family="Times,serif" font-size="14.00">*</text>
</g>
<!-- 140651000828976*&#45;&gt;140651000828976 -->
<g id="edge1" class="edge">
<title>140651000828976*&#45;&gt;140651000828976</title>
<path fill="none" stroke="black" d="M290.25,-73.5C297.53,-73.5 305.94,-73.5 314.95,-73.5"/>
<polygon fill="black" stroke="black" points="314.69,-77 324.69,-73.5 314.69,-70 314.69,-77"/>
</g>
<!-- 140651000829504 -->
<g id="node3" class="node">
<title>140651000829504</title>
<polygon fill="none" stroke="black" points="0,-55.5 0,-91.5 200,-91.5 200,-55.5 0,-55.5"/>
<text text-anchor="middle" x="16.5" y="-69.8" font-family="Times,serif" font-size="14.00">w1</text>
<polyline fill="none" stroke="black" points="33,-55.5 33,-91.5"/>
<text text-anchor="middle" x="75.5" y="-69.8" font-family="Times,serif" font-size="14.00">data &#45;3.0000</text>
<polyline fill="none" stroke="black" points="118,-55.5 118,-91.5"/>
<text text-anchor="middle" x="159" y="-69.8" font-family="Times,serif" font-size="14.00">grad 1.0000</text>
</g>
<!-- 140651000829504&#45;&gt;140651000828976* -->
<g id="edge14" class="edge">
<title>140651000829504&#45;&gt;140651000828976*</title>
<path fill="none" stroke="black" d="M199.75,-73.5C208.38,-73.5 216.71,-73.5 224.33,-73.5"/>
<polygon fill="black" stroke="black" points="224.12,-77 234.12,-73.5 224.12,-70 224.12,-77"/>
</g>
<!-- 140651000830080 -->
<g id="node4" class="node">
<title>140651000830080</title>
<polygon fill="none" stroke="black" points="666,-82.5 666,-118.5 925,-118.5 925,-82.5 666,-82.5"/>
<text text-anchor="middle" x="712" y="-96.8" font-family="Times,serif" font-size="14.00">x1w1 + x2w2</text>
<polyline fill="none" stroke="black" points="758,-82.5 758,-118.5"/>
<text text-anchor="middle" x="800.5" y="-96.8" font-family="Times,serif" font-size="14.00">data &#45;6.0000</text>
<polyline fill="none" stroke="black" points="843,-82.5 843,-118.5"/>
<text text-anchor="middle" x="884" y="-96.8" font-family="Times,serif" font-size="14.00">grad 0.5000</text>
</g>
<!-- 140651000830272+ -->
<g id="node11" class="node">
<title>140651000830272+</title>
<ellipse fill="none" stroke="black" cx="988" cy="-127.5" rx="27" ry="18"/>
<text text-anchor="middle" x="988" y="-123.8" font-family="Times,serif" font-size="14.00">+</text>
</g>
<!-- 140651000830080&#45;&gt;140651000830272+ -->
<g id="edge7" class="edge">
<title>140651000830080&#45;&gt;140651000830272+</title>
<path fill="none" stroke="black" d="M923.3,-118.47C932.78,-119.82 941.79,-121.09 949.89,-122.24"/>
<polygon fill="black" stroke="black" points="949.17,-125.67 959.56,-123.61 950.15,-118.74 949.17,-125.67"/>
</g>
<!-- 140651000830080+&#45;&gt;140651000830080 -->
<g id="edge2" class="edge">
<title>140651000830080+&#45;&gt;140651000830080</title>
<path fill="none" stroke="black" d="M630.49,-100.5C637.68,-100.5 646,-100.5 654.99,-100.5"/>
<polygon fill="black" stroke="black" points="654.76,-104 664.76,-100.5 654.76,-97 654.76,-104"/>
</g>
<!-- 140651000829600 -->
<g id="node6" class="node">
<title>140651000829600</title>
<polygon fill="none" stroke="black" points="2.5,-165.5 2.5,-201.5 197.5,-201.5 197.5,-165.5 2.5,-165.5"/>
<text text-anchor="middle" x="19" y="-179.8" font-family="Times,serif" font-size="14.00">w2</text>
<polyline fill="none" stroke="black" points="35.5,-165.5 35.5,-201.5"/>
<text text-anchor="middle" x="75.5" y="-179.8" font-family="Times,serif" font-size="14.00">data 1.0000</text>
<polyline fill="none" stroke="black" points="115.5,-165.5 115.5,-201.5"/>
<text text-anchor="middle" x="156.5" y="-179.8" font-family="Times,serif" font-size="14.00">grad 0.0000</text>
</g>
<!-- 140651000829936* -->
<g id="node15" class="node">
<title>140651000829936*</title>
<ellipse fill="none" stroke="black" cx="263" cy="-128.5" rx="27" ry="18"/>
<text text-anchor="middle" x="263" y="-124.8" font-family="Times,serif" font-size="14.00">*</text>
</g>
<!-- 140651000829600&#45;&gt;140651000829936* -->
<g id="edge10" class="edge">
<title>140651000829600&#45;&gt;140651000829936*</title>
<path fill="none" stroke="black" d="M172.27,-165.52C181.67,-162.72 191.12,-159.7 200,-156.5 210.09,-152.87 220.83,-148.29 230.48,-143.89"/>
<polygon fill="black" stroke="black" points="231.87,-147.11 239.45,-139.71 228.91,-140.76 231.87,-147.11"/>
</g>
<!-- 140651000829696 -->
<g id="node7" class="node">
<title>140651000829696</title>
<polygon fill="none" stroke="black" points="703,-137.5 703,-173.5 888,-173.5 888,-137.5 703,-137.5"/>
<text text-anchor="middle" x="714.5" y="-151.8" font-family="Times,serif" font-size="14.00">b</text>
<polyline fill="none" stroke="black" points="726,-137.5 726,-173.5"/>
<text text-anchor="middle" x="766" y="-151.8" font-family="Times,serif" font-size="14.00">data 6.8814</text>
<polyline fill="none" stroke="black" points="806,-137.5 806,-173.5"/>
<text text-anchor="middle" x="847" y="-151.8" font-family="Times,serif" font-size="14.00">grad 0.5000</text>
</g>
<!-- 140651000829696&#45;&gt;140651000830272+ -->
<g id="edge13" class="edge">
<title>140651000829696&#45;&gt;140651000830272+</title>
<path fill="none" stroke="black" d="M887.84,-142.07C909.83,-138.84 932.09,-135.57 949.94,-132.95"/>
<polygon fill="black" stroke="black" points="950.37,-136.42 959.75,-131.5 949.35,-129.5 950.37,-136.42"/>
</g>
<!-- 140650400373008 -->
<g id="node8" class="node">
<title>140650400373008</title>
<polygon fill="none" stroke="black" points="1362,-109.5 1362,-145.5 1547,-145.5 1547,-109.5 1362,-109.5"/>
<text text-anchor="middle" x="1373.5" y="-123.8" font-family="Times,serif" font-size="14.00">o</text>
<polyline fill="none" stroke="black" points="1385,-109.5 1385,-145.5"/>
<text text-anchor="middle" x="1425" y="-123.8" font-family="Times,serif" font-size="14.00">data 0.7071</text>
<polyline fill="none" stroke="black" points="1465,-109.5 1465,-145.5"/>
<text text-anchor="middle" x="1506" y="-123.8" font-family="Times,serif" font-size="14.00">grad 1.0000</text>
</g>
<!-- 140650400373008tanh -->
<g id="node9" class="node">
<title>140650400373008tanh</title>
<ellipse fill="none" stroke="black" cx="1299" cy="-127.5" rx="27" ry="18"/>
<text text-anchor="middle" x="1299" y="-123.8" font-family="Times,serif" font-size="14.00">tanh</text>
</g>
<!-- 140650400373008tanh&#45;&gt;140650400373008 -->
<g id="edge3" class="edge">
<title>140650400373008tanh&#45;&gt;140650400373008</title>
<path fill="none" stroke="black" d="M1326.39,-127.5C1333.62,-127.5 1341.92,-127.5 1350.74,-127.5"/>
<polygon fill="black" stroke="black" points="1350.64,-131 1360.64,-127.5 1350.64,-124 1350.64,-131"/>
</g>
<!-- 140651000830272 -->
<g id="node10" class="node">
<title>140651000830272</title>
<polygon fill="none" stroke="black" points="1051,-109.5 1051,-145.5 1236,-145.5 1236,-109.5 1051,-109.5"/>
<text text-anchor="middle" x="1062.5" y="-123.8" font-family="Times,serif" font-size="14.00">n</text>
<polyline fill="none" stroke="black" points="1074,-109.5 1074,-145.5"/>
<text text-anchor="middle" x="1114" y="-123.8" font-family="Times,serif" font-size="14.00">data 0.8814</text>
<polyline fill="none" stroke="black" points="1154,-109.5 1154,-145.5"/>
<text text-anchor="middle" x="1195" y="-123.8" font-family="Times,serif" font-size="14.00">grad 0.5000</text>
</g>
<!-- 140651000830272&#45;&gt;140650400373008tanh -->
<g id="edge12" class="edge">
<title>140651000830272&#45;&gt;140650400373008tanh</title>
<path fill="none" stroke="black" d="M1235.57,-127.5C1244.21,-127.5 1252.6,-127.5 1260.28,-127.5"/>
<polygon fill="black" stroke="black" points="1260.19,-131 1270.19,-127.5 1260.19,-124 1260.19,-131"/>
</g>
<!-- 140651000830272+&#45;&gt;140651000830272 -->
<g id="edge4" class="edge">
<title>140651000830272+&#45;&gt;140651000830272</title>
<path fill="none" stroke="black" d="M1015.39,-127.5C1022.62,-127.5 1030.92,-127.5 1039.74,-127.5"/>
<polygon fill="black" stroke="black" points="1039.64,-131 1049.64,-127.5 1039.64,-124 1039.64,-131"/>
</g>
<!-- 140651000829312 -->
<g id="node12" class="node">
<title>140651000829312</title>
<polygon fill="none" stroke="black" points="4,-110.5 4,-146.5 196,-146.5 196,-110.5 4,-110.5"/>
<text text-anchor="middle" x="19" y="-124.8" font-family="Times,serif" font-size="14.00">x2</text>
<polyline fill="none" stroke="black" points="34,-110.5 34,-146.5"/>
<text text-anchor="middle" x="74" y="-124.8" font-family="Times,serif" font-size="14.00">data 0.0000</text>
<polyline fill="none" stroke="black" points="114,-110.5 114,-146.5"/>
<text text-anchor="middle" x="155" y="-124.8" font-family="Times,serif" font-size="14.00">grad 0.5000</text>
</g>
<!-- 140651000829312&#45;&gt;140651000829936* -->
<g id="edge8" class="edge">
<title>140651000829312&#45;&gt;140651000829936*</title>
<path fill="none" stroke="black" d="M195.59,-128.5C205.66,-128.5 215.42,-128.5 224.23,-128.5"/>
<polygon fill="black" stroke="black" points="224.07,-132 234.07,-128.5 224.07,-125 224.07,-132"/>
</g>
<!-- 140651000829408 -->
<g id="node13" class="node">
<title>140651000829408</title>
<polygon fill="none" stroke="black" points="2,-0.5 2,-36.5 198,-36.5 198,-0.5 2,-0.5"/>
<text text-anchor="middle" x="17" y="-14.8" font-family="Times,serif" font-size="14.00">x1</text>
<polyline fill="none" stroke="black" points="32,-0.5 32,-36.5"/>
<text text-anchor="middle" x="72" y="-14.8" font-family="Times,serif" font-size="14.00">data 2.0000</text>
<polyline fill="none" stroke="black" points="112,-0.5 112,-36.5"/>
<text text-anchor="middle" x="155" y="-14.8" font-family="Times,serif" font-size="14.00">grad &#45;1.5000</text>
</g>
<!-- 140651000829408&#45;&gt;140651000828976* -->
<g id="edge9" class="edge">
<title>140651000829408&#45;&gt;140651000828976*</title>
<path fill="none" stroke="black" d="M169.02,-36.42C179.47,-39.56 190.08,-42.95 200,-46.5 209.96,-50.06 220.59,-54.46 230.18,-58.66"/>
<polygon fill="black" stroke="black" points="228.54,-61.76 239.1,-62.66 231.4,-55.37 228.54,-61.76"/>
</g>
<!-- 140651000829936 -->
<g id="node14" class="node">
<title>140651000829936</title>
<polygon fill="none" stroke="black" points="328.5,-110.5 328.5,-146.5 537.5,-146.5 537.5,-110.5 328.5,-110.5"/>
<text text-anchor="middle" x="352" y="-124.8" font-family="Times,serif" font-size="14.00">x2w2</text>
<polyline fill="none" stroke="black" points="375.5,-110.5 375.5,-146.5"/>
<text text-anchor="middle" x="415.5" y="-124.8" font-family="Times,serif" font-size="14.00">data 0.0000</text>
<polyline fill="none" stroke="black" points="455.5,-110.5 455.5,-146.5"/>
<text text-anchor="middle" x="496.5" y="-124.8" font-family="Times,serif" font-size="14.00">grad 0.5000</text>
</g>
<!-- 140651000829936&#45;&gt;140651000830080+ -->
<g id="edge6" class="edge">
<title>140651000829936&#45;&gt;140651000830080+</title>
<path fill="none" stroke="black" d="M537.05,-111.33C547.04,-109.66 556.65,-108.06 565.28,-106.62"/>
<polygon fill="black" stroke="black" points="565.59,-110.12 574.88,-105.02 564.44,-103.21 565.59,-110.12"/>
</g>
<!-- 140651000829936*&#45;&gt;140651000829936 -->
<g id="edge5" class="edge">
<title>140651000829936*&#45;&gt;140651000829936</title>
<path fill="none" stroke="black" d="M290.25,-128.5C298.16,-128.5 307.4,-128.5 317.3,-128.5"/>
<polygon fill="black" stroke="black" points="317.2,-132 327.2,-128.5 317.2,-125 317.2,-132"/>
</g>
</g>
</svg>
