<?xml version="1.0" encoding="UTF-8" standalone="no"?>
<!DOCTYPE svg PUBLIC "-//W3C//DTD SVG 1.1//EN"
 "http://www.w3.org/Graphics/SVG/1.1/DTD/svg11.dtd">
<!-- Generated by graphviz version 7.0.4 (20221203.1631)
 -->
<!-- Pages: 1 -->
<svg width="2921pt" height="236pt"
 viewBox="0.00 0.00 2921.00 236.00" xmlns="http://www.w3.org/2000/svg" xmlns:xlink="http://www.w3.org/1999/xlink">
<g id="graph0" class="graph" transform="scale(1 1) rotate(0) translate(4 232)">
<polygon fill="white" stroke="none" points="-4,4 -4,-232 2917,-232 2917,4 -4,4"/>
<!-- 140246935478816 -->
<g id="node1" class="node">
<title>140246935478816</title>
<polygon fill="none" stroke="black" points="666,-82.5 666,-118.5 925,-118.5 925,-82.5 666,-82.5"/>
<text text-anchor="middle" x="712" y="-96.8" font-family="Times,serif" font-size="14.00">x1w1 + x2w2</text>
<polyline fill="none" stroke="black" points="758,-82.5 758,-118.5"/>
<text text-anchor="middle" x="800.5" y="-96.8" font-family="Times,serif" font-size="14.00">data &#45;6.0000</text>
<polyline fill="none" stroke="black" points="843,-82.5 843,-118.5"/>
<text text-anchor="middle" x="884" y="-96.8" font-family="Times,serif" font-size="14.00">grad 0.5000</text>
</g>
<!-- 140246661566368+ -->
<g id="node25" class="node">
<title>140246661566368+</title>
<ellipse fill="none" stroke="black" cx="988" cy="-127.5" rx="27" ry="18"/>
<text text-anchor="middle" x="988" y="-123.8" font-family="Times,serif" font-size="14.00">+</text>
</g>
<!-- 140246935478816&#45;&gt;140246661566368+ -->
<g id="edge17" class="edge">
<title>140246935478816&#45;&gt;140246661566368+</title>
<path fill="none" stroke="black" d="M923.3,-118.47C932.78,-119.82 941.79,-121.09 949.89,-122.24"/>
<polygon fill="black" stroke="black" points="949.17,-125.67 959.56,-123.61 950.15,-118.74 949.17,-125.67"/>
</g>
<!-- 140246935478816+ -->
<g id="node2" class="node">
<title>140246935478816+</title>
<ellipse fill="none" stroke="black" cx="603" cy="-100.5" rx="27" ry="18"/>
<text text-anchor="middle" x="603" y="-96.8" font-family="Times,serif" font-size="14.00">+</text>
</g>
<!-- 140246935478816+&#45;&gt;140246935478816 -->
<g id="edge1" class="edge">
<title>140246935478816+&#45;&gt;140246935478816</title>
<path fill="none" stroke="black" d="M630.49,-100.5C637.68,-100.5 646,-100.5 654.99,-100.5"/>
<polygon fill="black" stroke="black" points="654.76,-104 664.76,-100.5 654.76,-97 654.76,-104"/>
</g>
<!-- 140246935480880 -->
<g id="node3" class="node">
<title>140246935480880</title>
<polygon fill="none" stroke="black" points="326,-110.5 326,-146.5 540,-146.5 540,-110.5 326,-110.5"/>
<text text-anchor="middle" x="349.5" y="-124.8" font-family="Times,serif" font-size="14.00">x1w1</text>
<polyline fill="none" stroke="black" points="373,-110.5 373,-146.5"/>
<text text-anchor="middle" x="415.5" y="-124.8" font-family="Times,serif" font-size="14.00">data &#45;6.0000</text>
<polyline fill="none" stroke="black" points="458,-110.5 458,-146.5"/>
<text text-anchor="middle" x="499" y="-124.8" font-family="Times,serif" font-size="14.00">grad 0.5000</text>
</g>
<!-- 140246935480880&#45;&gt;140246935478816+ -->
<g id="edge21" class="edge">
<title>140246935480880&#45;&gt;140246935478816+</title>
<path fill="none" stroke="black" d="M539.92,-110.85C548.88,-109.35 557.49,-107.92 565.29,-106.62"/>
<polygon fill="black" stroke="black" points="565.66,-110.1 574.95,-105.01 564.51,-103.2 565.66,-110.1"/>
</g>
<!-- 140246935480880* -->
<g id="node4" class="node">
<title>140246935480880*</title>
<ellipse fill="none" stroke="black" cx="263" cy="-128.5" rx="27" ry="18"/>
<text text-anchor="middle" x="263" y="-124.8" font-family="Times,serif" font-size="14.00">*</text>
</g>
<!-- 140246935480880*&#45;&gt;140246935480880 -->
<g id="edge2" class="edge">
<title>140246935480880*&#45;&gt;140246935480880</title>
<path fill="none" stroke="black" d="M290.25,-128.5C297.53,-128.5 305.94,-128.5 314.95,-128.5"/>
<polygon fill="black" stroke="black" points="314.69,-132 324.69,-128.5 314.69,-125 314.69,-132"/>
</g>
<!-- 140246661562432 -->
<g id="node5" class="node">
<title>140246661562432</title>
<polygon fill="none" stroke="black" points="2423,-161.5 2423,-197.5 2605,-197.5 2605,-161.5 2423,-161.5"/>
<text text-anchor="middle" x="2433" y="-175.8" font-family="Times,serif" font-size="14.00"> </text>
<polyline fill="none" stroke="black" points="2443,-161.5 2443,-197.5"/>
<text text-anchor="middle" x="2483" y="-175.8" font-family="Times,serif" font-size="14.00">data 0.1464</text>
<polyline fill="none" stroke="black" points="2523,-161.5 2523,-197.5"/>
<text text-anchor="middle" x="2564" y="-175.8" font-family="Times,serif" font-size="14.00">grad 4.8284</text>
</g>
<!-- 140246661565216* -->
<g id="node16" class="node">
<title>140246661565216*</title>
<ellipse fill="none" stroke="black" cx="2668" cy="-153.5" rx="27" ry="18"/>
<text text-anchor="middle" x="2668" y="-149.8" font-family="Times,serif" font-size="14.00">*</text>
</g>
<!-- 140246661562432&#45;&gt;140246661565216* -->
<g id="edge24" class="edge">
<title>140246661562432&#45;&gt;140246661565216*</title>
<path fill="none" stroke="black" d="M2604.74,-164.15C2613.62,-162.63 2622.23,-161.16 2630.09,-159.81"/>
<polygon fill="black" stroke="black" points="2630.6,-163.28 2639.86,-158.14 2629.42,-156.38 2630.6,-163.28"/>
</g>
<!-- 140246661562432**&#45;1 -->
<g id="node6" class="node">
<title>140246661562432**&#45;1</title>
<ellipse fill="none" stroke="black" cx="2296" cy="-181.5" rx="27" ry="18"/>
<text text-anchor="middle" x="2296" y="-177.8" font-family="Times,serif" font-size="14.00">**&#45;1</text>
</g>
<!-- 140246661562432**&#45;1&#45;&gt;140246661562432 -->
<g id="edge3" class="edge">
<title>140246661562432**&#45;1&#45;&gt;140246661562432</title>
<path fill="none" stroke="black" d="M2323.49,-181.25C2345.76,-181.05 2379.08,-180.74 2411.61,-180.44"/>
<polygon fill="black" stroke="black" points="2411.58,-183.94 2421.54,-180.35 2411.51,-176.94 2411.58,-183.94"/>
</g>
<!-- 140246935478864 -->
<g id="node7" class="node">
<title>140246935478864</title>
<polygon fill="none" stroke="black" points="4,-55.5 4,-91.5 196,-91.5 196,-55.5 4,-55.5"/>
<text text-anchor="middle" x="19" y="-69.8" font-family="Times,serif" font-size="14.00">x2</text>
<polyline fill="none" stroke="black" points="34,-55.5 34,-91.5"/>
<text text-anchor="middle" x="74" y="-69.8" font-family="Times,serif" font-size="14.00">data 0.0000</text>
<polyline fill="none" stroke="black" points="114,-55.5 114,-91.5"/>
<text text-anchor="middle" x="155" y="-69.8" font-family="Times,serif" font-size="14.00">grad 0.5000</text>
</g>
<!-- 140246935481456* -->
<g id="node9" class="node">
<title>140246935481456*</title>
<ellipse fill="none" stroke="black" cx="263" cy="-73.5" rx="27" ry="18"/>
<text text-anchor="middle" x="263" y="-69.8" font-family="Times,serif" font-size="14.00">*</text>
</g>
<!-- 140246935478864&#45;&gt;140246935481456* -->
<g id="edge13" class="edge">
<title>140246935478864&#45;&gt;140246935481456*</title>
<path fill="none" stroke="black" d="M195.59,-73.5C205.66,-73.5 215.42,-73.5 224.23,-73.5"/>
<polygon fill="black" stroke="black" points="224.07,-77 234.07,-73.5 224.07,-70 224.07,-77"/>
</g>
<!-- 140246935481456 -->
<g id="node8" class="node">
<title>140246935481456</title>
<polygon fill="none" stroke="black" points="328.5,-55.5 328.5,-91.5 537.5,-91.5 537.5,-55.5 328.5,-55.5"/>
<text text-anchor="middle" x="352" y="-69.8" font-family="Times,serif" font-size="14.00">x2w2</text>
<polyline fill="none" stroke="black" points="375.5,-55.5 375.5,-91.5"/>
<text text-anchor="middle" x="415.5" y="-69.8" font-family="Times,serif" font-size="14.00">data 0.0000</text>
<polyline fill="none" stroke="black" points="455.5,-55.5 455.5,-91.5"/>
<text text-anchor="middle" x="496.5" y="-69.8" font-family="Times,serif" font-size="14.00">grad 0.5000</text>
</g>
<!-- 140246935481456&#45;&gt;140246935478816+ -->
<g id="edge15" class="edge">
<title>140246935481456&#45;&gt;140246935478816+</title>
<path fill="none" stroke="black" d="M537.05,-90.06C547.04,-91.67 556.65,-93.21 565.28,-94.6"/>
<polygon fill="black" stroke="black" points="564.45,-98.01 574.88,-96.14 565.56,-91.1 564.45,-98.01"/>
</g>
<!-- 140246935481456*&#45;&gt;140246935481456 -->
<g id="edge4" class="edge">
<title>140246935481456*&#45;&gt;140246935481456</title>
<path fill="none" stroke="black" d="M290.25,-73.5C298.16,-73.5 307.4,-73.5 317.3,-73.5"/>
<polygon fill="black" stroke="black" points="317.2,-77 327.2,-73.5 317.2,-70 317.2,-77"/>
</g>
<!-- 140246661566176 -->
<g id="node10" class="node">
<title>140246661566176</title>
<polygon fill="none" stroke="black" points="1670.5,-191.5 1670.5,-227.5 1856.5,-227.5 1856.5,-191.5 1670.5,-191.5"/>
<text text-anchor="middle" x="1680.5" y="-205.8" font-family="Times,serif" font-size="14.00"> </text>
<polyline fill="none" stroke="black" points="1690.5,-191.5 1690.5,-227.5"/>
<text text-anchor="middle" x="1730.5" y="-205.8" font-family="Times,serif" font-size="14.00">data 1.0000</text>
<polyline fill="none" stroke="black" points="1770.5,-191.5 1770.5,-227.5"/>
<text text-anchor="middle" x="1813.5" y="-205.8" font-family="Times,serif" font-size="14.00">grad &#45;0.1036</text>
</g>
<!-- 140246661565888+ -->
<g id="node21" class="node">
<title>140246661565888+</title>
<ellipse fill="none" stroke="black" cx="1920" cy="-181.5" rx="27" ry="18"/>
<text text-anchor="middle" x="1920" y="-177.8" font-family="Times,serif" font-size="14.00">+</text>
</g>
<!-- 140246661566176&#45;&gt;140246661565888+ -->
<g id="edge23" class="edge">
<title>140246661566176&#45;&gt;140246661565888+</title>
<path fill="none" stroke="black" d="M1856.16,-192.89C1865.33,-191.23 1874.21,-189.62 1882.28,-188.15"/>
<polygon fill="black" stroke="black" points="1882.74,-191.63 1891.95,-186.4 1881.49,-184.74 1882.74,-191.63"/>
</g>
<!-- 140246935480304 -->
<g id="node11" class="node">
<title>140246935480304</title>
<polygon fill="none" stroke="black" points="2.5,-0.5 2.5,-36.5 197.5,-36.5 197.5,-0.5 2.5,-0.5"/>
<text text-anchor="middle" x="19" y="-14.8" font-family="Times,serif" font-size="14.00">w2</text>
<polyline fill="none" stroke="black" points="35.5,-0.5 35.5,-36.5"/>
<text text-anchor="middle" x="75.5" y="-14.8" font-family="Times,serif" font-size="14.00">data 1.0000</text>
<polyline fill="none" stroke="black" points="115.5,-0.5 115.5,-36.5"/>
<text text-anchor="middle" x="156.5" y="-14.8" font-family="Times,serif" font-size="14.00">grad 0.0000</text>
</g>
<!-- 140246935480304&#45;&gt;140246935481456* -->
<g id="edge12" class="edge">
<title>140246935480304&#45;&gt;140246935481456*</title>
<path fill="none" stroke="black" d="M172.27,-36.48C181.67,-39.28 191.12,-42.3 200,-45.5 210.09,-49.13 220.83,-53.71 230.48,-58.11"/>
<polygon fill="black" stroke="black" points="228.91,-61.24 239.45,-62.29 231.87,-54.89 228.91,-61.24"/>
</g>
<!-- 140246661565696 -->
<g id="node12" class="node">
<title>140246661565696</title>
<polygon fill="none" stroke="black" points="2205,-108.5 2205,-144.5 2387,-144.5 2387,-108.5 2205,-108.5"/>
<text text-anchor="middle" x="2215" y="-122.8" font-family="Times,serif" font-size="14.00"> </text>
<polyline fill="none" stroke="black" points="2225,-108.5 2225,-144.5"/>
<text text-anchor="middle" x="2265" y="-122.8" font-family="Times,serif" font-size="14.00">data 4.8284</text>
<polyline fill="none" stroke="black" points="2305,-108.5 2305,-144.5"/>
<text text-anchor="middle" x="2346" y="-122.8" font-family="Times,serif" font-size="14.00">grad 0.1464</text>
</g>
<!-- 140246661565696&#45;&gt;140246661565216* -->
<g id="edge25" class="edge">
<title>140246661565696&#45;&gt;140246661565216*</title>
<path fill="none" stroke="black" d="M2386.57,-133.04C2464.44,-138.72 2573.37,-146.67 2629.81,-150.79"/>
<polygon fill="black" stroke="black" points="2629.29,-154.26 2639.52,-151.49 2629.8,-147.28 2629.29,-154.26"/>
</g>
<!-- 140246661565696+ -->
<g id="node13" class="node">
<title>140246661565696+</title>
<ellipse fill="none" stroke="black" cx="1920" cy="-126.5" rx="27" ry="18"/>
<text text-anchor="middle" x="1920" y="-122.8" font-family="Times,serif" font-size="14.00">+</text>
</g>
<!-- 140246661565696+&#45;&gt;140246661565696 -->
<g id="edge5" class="edge">
<title>140246661565696+&#45;&gt;140246661565696</title>
<path fill="none" stroke="black" d="M1947.3,-126.5C1997.69,-126.5 2110.25,-126.5 2193.73,-126.5"/>
<polygon fill="black" stroke="black" points="2193.53,-130 2203.53,-126.5 2193.53,-123 2193.53,-130"/>
</g>
<!-- 140246935480592 -->
<g id="node14" class="node">
<title>140246935480592</title>
<polygon fill="none" stroke="black" points="703,-137.5 703,-173.5 888,-173.5 888,-137.5 703,-137.5"/>
<text text-anchor="middle" x="714.5" y="-151.8" font-family="Times,serif" font-size="14.00">b</text>
<polyline fill="none" stroke="black" points="726,-137.5 726,-173.5"/>
<text text-anchor="middle" x="766" y="-151.8" font-family="Times,serif" font-size="14.00">data 6.8814</text>
<polyline fill="none" stroke="black" points="806,-137.5 806,-173.5"/>
<text text-anchor="middle" x="847" y="-151.8" font-family="Times,serif" font-size="14.00">grad 0.5000</text>
</g>
<!-- 140246935480592&#45;&gt;140246661566368+ -->
<g id="edge16" class="edge">
<title>140246935480592&#45;&gt;140246661566368+</title>
<path fill="none" stroke="black" d="M887.84,-142.07C909.83,-138.84 932.09,-135.57 949.94,-132.95"/>
<polygon fill="black" stroke="black" points="950.37,-136.42 959.75,-131.5 949.35,-129.5 950.37,-136.42"/>
</g>
<!-- 140246661565216 -->
<g id="node15" class="node">
<title>140246661565216</title>
<polygon fill="none" stroke="black" points="2731,-135.5 2731,-171.5 2913,-171.5 2913,-135.5 2731,-135.5"/>
<text text-anchor="middle" x="2741" y="-149.8" font-family="Times,serif" font-size="14.00"> </text>
<polyline fill="none" stroke="black" points="2751,-135.5 2751,-171.5"/>
<text text-anchor="middle" x="2791" y="-149.8" font-family="Times,serif" font-size="14.00">data 0.7071</text>
<polyline fill="none" stroke="black" points="2831,-135.5 2831,-171.5"/>
<text text-anchor="middle" x="2872" y="-149.8" font-family="Times,serif" font-size="14.00">grad 1.0000</text>
</g>
<!-- 140246661565216*&#45;&gt;140246661565216 -->
<g id="edge6" class="edge">
<title>140246661565216*&#45;&gt;140246661565216</title>
<path fill="none" stroke="black" d="M2695.48,-153.5C2702.71,-153.5 2711.01,-153.5 2719.82,-153.5"/>
<polygon fill="black" stroke="black" points="2719.69,-157 2729.69,-153.5 2719.69,-150 2719.69,-157"/>
</g>
<!-- 140246661563152 -->
<g id="node17" class="node">
<title>140246661563152</title>
<polygon fill="none" stroke="black" points="1670,-81.5 1670,-117.5 1857,-117.5 1857,-81.5 1670,-81.5"/>
<text text-anchor="middle" x="1680" y="-95.8" font-family="Times,serif" font-size="14.00"> </text>
<polyline fill="none" stroke="black" points="1690,-81.5 1690,-117.5"/>
<text text-anchor="middle" x="1732.5" y="-95.8" font-family="Times,serif" font-size="14.00">data &#45;1.0000</text>
<polyline fill="none" stroke="black" points="1775,-81.5 1775,-117.5"/>
<text text-anchor="middle" x="1816" y="-95.8" font-family="Times,serif" font-size="14.00">grad 0.1464</text>
</g>
<!-- 140246661563152&#45;&gt;140246661565696+ -->
<g id="edge19" class="edge">
<title>140246661563152&#45;&gt;140246661565696+</title>
<path fill="none" stroke="black" d="M1856.6,-115.6C1865.53,-117.16 1874.18,-118.67 1882.06,-120.04"/>
<polygon fill="black" stroke="black" points="1881.4,-123.48 1891.86,-121.76 1882.61,-116.59 1881.4,-123.48"/>
</g>
<!-- 140246661566272 -->
<g id="node18" class="node">
<title>140246661566272</title>
<polygon fill="none" stroke="black" points="1362,-136.5 1362,-172.5 1544,-172.5 1544,-136.5 1362,-136.5"/>
<text text-anchor="middle" x="1372" y="-150.8" font-family="Times,serif" font-size="14.00"> </text>
<polyline fill="none" stroke="black" points="1382,-136.5 1382,-172.5"/>
<text text-anchor="middle" x="1422" y="-150.8" font-family="Times,serif" font-size="14.00">data 1.7627</text>
<polyline fill="none" stroke="black" points="1462,-136.5 1462,-172.5"/>
<text text-anchor="middle" x="1503" y="-150.8" font-family="Times,serif" font-size="14.00">grad 0.2500</text>
</g>
<!-- 140246661562768exp -->
<g id="node23" class="node">
<title>140246661562768exp</title>
<ellipse fill="none" stroke="black" cx="1607" cy="-154.5" rx="27" ry="18"/>
<text text-anchor="middle" x="1607" y="-150.8" font-family="Times,serif" font-size="14.00">exp</text>
</g>
<!-- 140246661566272&#45;&gt;140246661562768exp -->
<g id="edge27" class="edge">
<title>140246661566272&#45;&gt;140246661562768exp</title>
<path fill="none" stroke="black" d="M1543.74,-154.5C1552.34,-154.5 1560.7,-154.5 1568.36,-154.5"/>
<polygon fill="black" stroke="black" points="1568.24,-158 1578.24,-154.5 1568.24,-151 1568.24,-158"/>
</g>
<!-- 140246661566272* -->
<g id="node19" class="node">
<title>140246661566272*</title>
<ellipse fill="none" stroke="black" cx="1299" cy="-154.5" rx="27" ry="18"/>
<text text-anchor="middle" x="1299" y="-150.8" font-family="Times,serif" font-size="14.00">*</text>
</g>
<!-- 140246661566272*&#45;&gt;140246661566272 -->
<g id="edge7" class="edge">
<title>140246661566272*&#45;&gt;140246661566272</title>
<path fill="none" stroke="black" d="M1326.48,-154.5C1333.71,-154.5 1342.01,-154.5 1350.82,-154.5"/>
<polygon fill="black" stroke="black" points="1350.69,-158 1360.69,-154.5 1350.69,-151 1350.69,-158"/>
</g>
<!-- 140246661565888 -->
<g id="node20" class="node">
<title>140246661565888</title>
<polygon fill="none" stroke="black" points="1983,-163.5 1983,-199.5 2169,-199.5 2169,-163.5 1983,-163.5"/>
<text text-anchor="middle" x="1993" y="-177.8" font-family="Times,serif" font-size="14.00"> </text>
<polyline fill="none" stroke="black" points="2003,-163.5 2003,-199.5"/>
<text text-anchor="middle" x="2043" y="-177.8" font-family="Times,serif" font-size="14.00">data 6.8284</text>
<polyline fill="none" stroke="black" points="2083,-163.5 2083,-199.5"/>
<text text-anchor="middle" x="2126" y="-177.8" font-family="Times,serif" font-size="14.00">grad &#45;0.1036</text>
</g>
<!-- 140246661565888&#45;&gt;140246661562432**&#45;1 -->
<g id="edge22" class="edge">
<title>140246661565888&#45;&gt;140246661562432**&#45;1</title>
<path fill="none" stroke="black" d="M2168.82,-181.5C2200.02,-181.5 2233.15,-181.5 2257.62,-181.5"/>
<polygon fill="black" stroke="black" points="2257.39,-185 2267.39,-181.5 2257.39,-178 2257.39,-185"/>
</g>
<!-- 140246661565888+&#45;&gt;140246661565888 -->
<g id="edge8" class="edge">
<title>140246661565888+&#45;&gt;140246661565888</title>
<path fill="none" stroke="black" d="M1947.47,-181.5C1954.67,-181.5 1962.92,-181.5 1971.69,-181.5"/>
<polygon fill="black" stroke="black" points="1971.51,-185 1981.51,-181.5 1971.51,-178 1971.51,-185"/>
</g>
<!-- 140246661562768 -->
<g id="node22" class="node">
<title>140246661562768</title>
<polygon fill="none" stroke="black" points="1672.5,-136.5 1672.5,-172.5 1854.5,-172.5 1854.5,-136.5 1672.5,-136.5"/>
<text text-anchor="middle" x="1682.5" y="-150.8" font-family="Times,serif" font-size="14.00"> </text>
<polyline fill="none" stroke="black" points="1692.5,-136.5 1692.5,-172.5"/>
<text text-anchor="middle" x="1732.5" y="-150.8" font-family="Times,serif" font-size="14.00">data 5.8284</text>
<polyline fill="none" stroke="black" points="1772.5,-136.5 1772.5,-172.5"/>
<text text-anchor="middle" x="1813.5" y="-150.8" font-family="Times,serif" font-size="14.00">grad 0.0429</text>
</g>
<!-- 140246661562768&#45;&gt;140246661565696+ -->
<g id="edge20" class="edge">
<title>140246661562768&#45;&gt;140246661565696+</title>
<path fill="none" stroke="black" d="M1854.37,-138.21C1864.23,-136.43 1873.81,-134.69 1882.44,-133.13"/>
<polygon fill="black" stroke="black" points="1882.85,-136.61 1892.06,-131.38 1881.6,-129.72 1882.85,-136.61"/>
</g>
<!-- 140246661562768&#45;&gt;140246661565888+ -->
<g id="edge11" class="edge">
<title>140246661562768&#45;&gt;140246661565888+</title>
<path fill="none" stroke="black" d="M1854.37,-170.21C1864.23,-171.93 1873.81,-173.6 1882.44,-175.11"/>
<polygon fill="black" stroke="black" points="1881.61,-178.52 1892.06,-176.79 1882.81,-171.62 1881.61,-178.52"/>
</g>
<!-- 140246661562768exp&#45;&gt;140246661562768 -->
<g id="edge9" class="edge">
<title>140246661562768exp&#45;&gt;140246661562768</title>
<path fill="none" stroke="black" d="M1634.21,-154.5C1642.15,-154.5 1651.4,-154.5 1661.22,-154.5"/>
<polygon fill="black" stroke="black" points="1661.01,-158 1671.01,-154.5 1661.01,-151 1661.01,-158"/>
</g>
<!-- 140246661566368 -->
<g id="node24" class="node">
<title>140246661566368</title>
<polygon fill="none" stroke="black" points="1051,-109.5 1051,-145.5 1236,-145.5 1236,-109.5 1051,-109.5"/>
<text text-anchor="middle" x="1062.5" y="-123.8" font-family="Times,serif" font-size="14.00">n</text>
<polyline fill="none" stroke="black" points="1074,-109.5 1074,-145.5"/>
<text text-anchor="middle" x="1114" y="-123.8" font-family="Times,serif" font-size="14.00">data 0.8814</text>
<polyline fill="none" stroke="black" points="1154,-109.5 1154,-145.5"/>
<text text-anchor="middle" x="1195" y="-123.8" font-family="Times,serif" font-size="14.00">grad 0.5000</text>
</g>
<!-- 140246661566368&#45;&gt;140246661566272* -->
<g id="edge14" class="edge">
<title>140246661566368&#45;&gt;140246661566272*</title>
<path fill="none" stroke="black" d="M1235.57,-143.52C1244.67,-145.12 1253.5,-146.67 1261.52,-148.08"/>
<polygon fill="black" stroke="black" points="1260.66,-151.49 1271.12,-149.77 1261.88,-144.59 1260.66,-151.49"/>
</g>
<!-- 140246661566368+&#45;&gt;140246661566368 -->
<g id="edge10" class="edge">
<title>140246661566368+&#45;&gt;140246661566368</title>
<path fill="none" stroke="black" d="M1015.39,-127.5C1022.62,-127.5 1030.92,-127.5 1039.74,-127.5"/>
<polygon fill="black" stroke="black" points="1039.64,-131 1049.64,-127.5 1039.64,-124 1039.64,-131"/>
</g>
<!-- 140246935480256 -->
<g id="node26" class="node">
<title>140246935480256</title>
<polygon fill="none" stroke="black" points="2,-165.5 2,-201.5 198,-201.5 198,-165.5 2,-165.5"/>
<text text-anchor="middle" x="17" y="-179.8" font-family="Times,serif" font-size="14.00">x1</text>
<polyline fill="none" stroke="black" points="32,-165.5 32,-201.5"/>
<text text-anchor="middle" x="72" y="-179.8" font-family="Times,serif" font-size="14.00">data 2.0000</text>
<polyline fill="none" stroke="black" points="112,-165.5 112,-201.5"/>
<text text-anchor="middle" x="155" y="-179.8" font-family="Times,serif" font-size="14.00">grad &#45;1.5000</text>
</g>
<!-- 140246935480256&#45;&gt;140246935480880* -->
<g id="edge18" class="edge">
<title>140246935480256&#45;&gt;140246935480880*</title>
<path fill="none" stroke="black" d="M172.27,-165.52C181.67,-162.72 191.12,-159.7 200,-156.5 210.09,-152.87 220.83,-148.29 230.48,-143.89"/>
<polygon fill="black" stroke="black" points="231.87,-147.11 239.45,-139.71 228.91,-140.76 231.87,-147.11"/>
</g>
<!-- 140246661565408 -->
<g id="node27" class="node">
<title>140246661565408</title>
<polygon fill="none" stroke="black" points="1052.5,-164.5 1052.5,-200.5 1234.5,-200.5 1234.5,-164.5 1052.5,-164.5"/>
<text text-anchor="middle" x="1062.5" y="-178.8" font-family="Times,serif" font-size="14.00"> </text>
<polyline fill="none" stroke="black" points="1072.5,-164.5 1072.5,-200.5"/>
<text text-anchor="middle" x="1112.5" y="-178.8" font-family="Times,serif" font-size="14.00">data 2.0000</text>
<polyline fill="none" stroke="black" points="1152.5,-164.5 1152.5,-200.5"/>
<text text-anchor="middle" x="1193.5" y="-178.8" font-family="Times,serif" font-size="14.00">grad 0.2203</text>
</g>
<!-- 140246661565408&#45;&gt;140246661566272* -->
<g id="edge26" class="edge">
<title>140246661565408&#45;&gt;140246661566272*</title>
<path fill="none" stroke="black" d="M1234.24,-166.13C1243.78,-164.39 1253.05,-162.7 1261.42,-161.17"/>
<polygon fill="black" stroke="black" points="1261.91,-164.64 1271.12,-159.4 1260.66,-157.75 1261.91,-164.64"/>
</g>
<!-- 140246935478768 -->
<g id="node28" class="node">
<title>140246935478768</title>
<polygon fill="none" stroke="black" points="0,-110.5 0,-146.5 200,-146.5 200,-110.5 0,-110.5"/>
<text text-anchor="middle" x="16.5" y="-124.8" font-family="Times,serif" font-size="14.00">w1</text>
<polyline fill="none" stroke="black" points="33,-110.5 33,-146.5"/>
<text text-anchor="middle" x="75.5" y="-124.8" font-family="Times,serif" font-size="14.00">data &#45;3.0000</text>
<polyline fill="none" stroke="black" points="118,-110.5 118,-146.5"/>
<text text-anchor="middle" x="159" y="-124.8" font-family="Times,serif" font-size="14.00">grad 1.0000</text>
</g>
<!-- 140246935478768&#45;&gt;140246935480880* -->
<g id="edge28" class="edge">
<title>140246935478768&#45;&gt;140246935480880*</title>
<path fill="none" stroke="black" d="M199.75,-128.5C208.38,-128.5 216.71,-128.5 224.33,-128.5"/>
<polygon fill="black" stroke="black" points="224.12,-132 234.12,-128.5 224.12,-125 224.12,-132"/>
</g>
</g>
</svg>
