<?xml version="1.0" encoding="UTF-8" standalone="no"?>
<!DOCTYPE svg PUBLIC "-//W3C//DTD SVG 1.1//EN"
 "http://www.w3.org/Graphics/SVG/1.1/DTD/svg11.dtd">
<!-- Generated by graphviz version 7.0.4 (20221203.1631)
 -->
<!-- Pages: 1 -->
<svg width="1555pt" height="210pt"
 viewBox="0.00 0.00 1555.00 210.00" xmlns="http://www.w3.org/2000/svg" xmlns:xlink="http://www.w3.org/1999/xlink">
<g id="graph0" class="graph" transform="scale(1 1) rotate(0) translate(4 206)">
<polygon fill="white" stroke="none" points="-4,4 -4,-206 1551,-206 1551,4 -4,4"/>
<!-- 140246387211856 -->
<g id="node1" class="node">
<title>140246387211856</title>
<polygon fill="none" stroke="black" points="666,-82.5 666,-118.5 925,-118.5 925,-82.5 666,-82.5"/>
<text text-anchor="middle" x="712" y="-96.8" font-family="Times,serif" font-size="14.00">x1w1 + x2w2</text>
<polyline fill="none" stroke="black" points="758,-82.5 758,-118.5"/>
<text text-anchor="middle" x="800.5" y="-96.8" font-family="Times,serif" font-size="14.00">data &#45;6.0000</text>
<polyline fill="none" stroke="black" points="843,-82.5 843,-118.5"/>
<text text-anchor="middle" x="884" y="-96.8" font-family="Times,serif" font-size="14.00">grad 0.5000</text>
</g>
<!-- 140246387212048+ -->
<g id="node8" class="node">
<title>140246387212048+</title>
<ellipse fill="none" stroke="black" cx="988" cy="-127.5" rx="27" ry="18"/>
<text text-anchor="middle" x="988" y="-123.8" font-family="Times,serif" font-size="14.00">+</text>
</g>
<!-- 140246387211856&#45;&gt;140246387212048+ -->
<g id="edge10" class="edge">
<title>140246387211856&#45;&gt;140246387212048+</title>
<path fill="none" stroke="black" d="M923.3,-118.47C932.78,-119.82 941.79,-121.09 949.89,-122.24"/>
<polygon fill="black" stroke="black" points="949.17,-125.67 959.56,-123.61 950.15,-118.74 949.17,-125.67"/>
</g>
<!-- 140246387211856+ -->
<g id="node2" class="node">
<title>140246387211856+</title>
<ellipse fill="none" stroke="black" cx="603" cy="-100.5" rx="27" ry="18"/>
<text text-anchor="middle" x="603" y="-96.8" font-family="Times,serif" font-size="14.00">+</text>
</g>
<!-- 140246387211856+&#45;&gt;140246387211856 -->
<g id="edge1" class="edge">
<title>140246387211856+&#45;&gt;140246387211856</title>
<path fill="none" stroke="black" d="M630.49,-100.5C637.68,-100.5 646,-100.5 654.99,-100.5"/>
<polygon fill="black" stroke="black" points="654.76,-104 664.76,-100.5 654.76,-97 654.76,-104"/>
</g>
<!-- 140246387211376 -->
<g id="node3" class="node">
<title>140246387211376</title>
<polygon fill="none" stroke="black" points="1362,-109.5 1362,-145.5 1547,-145.5 1547,-109.5 1362,-109.5"/>
<text text-anchor="middle" x="1373.5" y="-123.8" font-family="Times,serif" font-size="14.00">o</text>
<polyline fill="none" stroke="black" points="1385,-109.5 1385,-145.5"/>
<text text-anchor="middle" x="1425" y="-123.8" font-family="Times,serif" font-size="14.00">data 0.7071</text>
<polyline fill="none" stroke="black" points="1465,-109.5 1465,-145.5"/>
<text text-anchor="middle" x="1506" y="-123.8" font-family="Times,serif" font-size="14.00">grad 1.0000</text>
</g>
<!-- 140246387211376tanh -->
<g id="node4" class="node">
<title>140246387211376tanh</title>
<ellipse fill="none" stroke="black" cx="1299" cy="-127.5" rx="27" ry="18"/>
<text text-anchor="middle" x="1299" y="-123.8" font-family="Times,serif" font-size="14.00">tanh</text>
</g>
<!-- 140246387211376tanh&#45;&gt;140246387211376 -->
<g id="edge2" class="edge">
<title>140246387211376tanh&#45;&gt;140246387211376</title>
<path fill="none" stroke="black" d="M1326.39,-127.5C1333.62,-127.5 1341.92,-127.5 1350.74,-127.5"/>
<polygon fill="black" stroke="black" points="1350.64,-131 1360.64,-127.5 1350.64,-124 1350.64,-131"/>
</g>
<!-- 140246387209984 -->
<g id="node5" class="node">
<title>140246387209984</title>
<polygon fill="none" stroke="black" points="326,-110.5 326,-146.5 540,-146.5 540,-110.5 326,-110.5"/>
<text text-anchor="middle" x="349.5" y="-124.8" font-family="Times,serif" font-size="14.00">x1w1</text>
<polyline fill="none" stroke="black" points="373,-110.5 373,-146.5"/>
<text text-anchor="middle" x="415.5" y="-124.8" font-family="Times,serif" font-size="14.00">data &#45;6.0000</text>
<polyline fill="none" stroke="black" points="458,-110.5 458,-146.5"/>
<text text-anchor="middle" x="499" y="-124.8" font-family="Times,serif" font-size="14.00">grad 0.5000</text>
</g>
<!-- 140246387209984&#45;&gt;140246387211856+ -->
<g id="edge7" class="edge">
<title>140246387209984&#45;&gt;140246387211856+</title>
<path fill="none" stroke="black" d="M539.92,-110.85C548.88,-109.35 557.49,-107.92 565.29,-106.62"/>
<polygon fill="black" stroke="black" points="565.66,-110.1 574.95,-105.01 564.51,-103.2 565.66,-110.1"/>
</g>
<!-- 140246387209984* -->
<g id="node6" class="node">
<title>140246387209984*</title>
<ellipse fill="none" stroke="black" cx="263" cy="-128.5" rx="27" ry="18"/>
<text text-anchor="middle" x="263" y="-124.8" font-family="Times,serif" font-size="14.00">*</text>
</g>
<!-- 140246387209984*&#45;&gt;140246387209984 -->
<g id="edge3" class="edge">
<title>140246387209984*&#45;&gt;140246387209984</title>
<path fill="none" stroke="black" d="M290.25,-128.5C297.53,-128.5 305.94,-128.5 314.95,-128.5"/>
<polygon fill="black" stroke="black" points="314.69,-132 324.69,-128.5 314.69,-125 314.69,-132"/>
</g>
<!-- 140246387212048 -->
<g id="node7" class="node">
<title>140246387212048</title>
<polygon fill="none" stroke="black" points="1051,-109.5 1051,-145.5 1236,-145.5 1236,-109.5 1051,-109.5"/>
<text text-anchor="middle" x="1062.5" y="-123.8" font-family="Times,serif" font-size="14.00">n</text>
<polyline fill="none" stroke="black" points="1074,-109.5 1074,-145.5"/>
<text text-anchor="middle" x="1114" y="-123.8" font-family="Times,serif" font-size="14.00">data 0.8814</text>
<polyline fill="none" stroke="black" points="1154,-109.5 1154,-145.5"/>
<text text-anchor="middle" x="1195" y="-123.8" font-family="Times,serif" font-size="14.00">grad 0.5000</text>
</g>
<!-- 140246387212048&#45;&gt;140246387211376tanh -->
<g id="edge14" class="edge">
<title>140246387212048&#45;&gt;140246387211376tanh</title>
<path fill="none" stroke="black" d="M1235.57,-127.5C1244.21,-127.5 1252.6,-127.5 1260.28,-127.5"/>
<polygon fill="black" stroke="black" points="1260.19,-131 1270.19,-127.5 1260.19,-124 1260.19,-131"/>
</g>
<!-- 140246387212048+&#45;&gt;140246387212048 -->
<g id="edge4" class="edge">
<title>140246387212048+&#45;&gt;140246387212048</title>
<path fill="none" stroke="black" d="M1015.39,-127.5C1022.62,-127.5 1030.92,-127.5 1039.74,-127.5"/>
<polygon fill="black" stroke="black" points="1039.64,-131 1049.64,-127.5 1039.64,-124 1039.64,-131"/>
</g>
<!-- 140246387211520 -->
<g id="node9" class="node">
<title>140246387211520</title>
<polygon fill="none" stroke="black" points="2.5,-55.5 2.5,-91.5 197.5,-91.5 197.5,-55.5 2.5,-55.5"/>
<text text-anchor="middle" x="19" y="-69.8" font-family="Times,serif" font-size="14.00">w2</text>
<polyline fill="none" stroke="black" points="35.5,-55.5 35.5,-91.5"/>
<text text-anchor="middle" x="75.5" y="-69.8" font-family="Times,serif" font-size="14.00">data 1.0000</text>
<polyline fill="none" stroke="black" points="115.5,-55.5 115.5,-91.5"/>
<text text-anchor="middle" x="156.5" y="-69.8" font-family="Times,serif" font-size="14.00">grad 0.0000</text>
</g>
<!-- 140246387211712* -->
<g id="node14" class="node">
<title>140246387211712*</title>
<ellipse fill="none" stroke="black" cx="263" cy="-73.5" rx="27" ry="18"/>
<text text-anchor="middle" x="263" y="-69.8" font-family="Times,serif" font-size="14.00">*</text>
</g>
<!-- 140246387211520&#45;&gt;140246387211712* -->
<g id="edge12" class="edge">
<title>140246387211520&#45;&gt;140246387211712*</title>
<path fill="none" stroke="black" d="M197.44,-73.5C206.89,-73.5 216.04,-73.5 224.32,-73.5"/>
<polygon fill="black" stroke="black" points="224.28,-77 234.28,-73.5 224.28,-70 224.28,-77"/>
</g>
<!-- 140246387211616 -->
<g id="node10" class="node">
<title>140246387211616</title>
<polygon fill="none" stroke="black" points="0,-165.5 0,-201.5 200,-201.5 200,-165.5 0,-165.5"/>
<text text-anchor="middle" x="16.5" y="-179.8" font-family="Times,serif" font-size="14.00">w1</text>
<polyline fill="none" stroke="black" points="33,-165.5 33,-201.5"/>
<text text-anchor="middle" x="75.5" y="-179.8" font-family="Times,serif" font-size="14.00">data &#45;3.0000</text>
<polyline fill="none" stroke="black" points="118,-165.5 118,-201.5"/>
<text text-anchor="middle" x="159" y="-179.8" font-family="Times,serif" font-size="14.00">grad 1.0000</text>
</g>
<!-- 140246387211616&#45;&gt;140246387209984* -->
<g id="edge9" class="edge">
<title>140246387211616&#45;&gt;140246387209984*</title>
<path fill="none" stroke="black" d="M172.27,-165.52C181.67,-162.72 191.12,-159.7 200,-156.5 210.09,-152.87 220.83,-148.29 230.48,-143.89"/>
<polygon fill="black" stroke="black" points="231.87,-147.11 239.45,-139.71 228.91,-140.76 231.87,-147.11"/>
</g>
<!-- 140246387211664 -->
<g id="node11" class="node">
<title>140246387211664</title>
<polygon fill="none" stroke="black" points="703,-137.5 703,-173.5 888,-173.5 888,-137.5 703,-137.5"/>
<text text-anchor="middle" x="714.5" y="-151.8" font-family="Times,serif" font-size="14.00">b</text>
<polyline fill="none" stroke="black" points="726,-137.5 726,-173.5"/>
<text text-anchor="middle" x="766" y="-151.8" font-family="Times,serif" font-size="14.00">data 6.8814</text>
<polyline fill="none" stroke="black" points="806,-137.5 806,-173.5"/>
<text text-anchor="middle" x="847" y="-151.8" font-family="Times,serif" font-size="14.00">grad 0.5000</text>
</g>
<!-- 140246387211664&#45;&gt;140246387212048+ -->
<g id="edge8" class="edge">
<title>140246387211664&#45;&gt;140246387212048+</title>
<path fill="none" stroke="black" d="M887.84,-142.07C909.83,-138.84 932.09,-135.57 949.94,-132.95"/>
<polygon fill="black" stroke="black" points="950.37,-136.42 959.75,-131.5 949.35,-129.5 950.37,-136.42"/>
</g>
<!-- 140246387209120 -->
<g id="node12" class="node">
<title>140246387209120</title>
<polygon fill="none" stroke="black" points="2,-110.5 2,-146.5 198,-146.5 198,-110.5 2,-110.5"/>
<text text-anchor="middle" x="17" y="-124.8" font-family="Times,serif" font-size="14.00">x1</text>
<polyline fill="none" stroke="black" points="32,-110.5 32,-146.5"/>
<text text-anchor="middle" x="72" y="-124.8" font-family="Times,serif" font-size="14.00">data 2.0000</text>
<polyline fill="none" stroke="black" points="112,-110.5 112,-146.5"/>
<text text-anchor="middle" x="155" y="-124.8" font-family="Times,serif" font-size="14.00">grad &#45;1.5000</text>
</g>
<!-- 140246387209120&#45;&gt;140246387209984* -->
<g id="edge11" class="edge">
<title>140246387209120&#45;&gt;140246387209984*</title>
<path fill="none" stroke="black" d="M197.91,-128.5C207.21,-128.5 216.21,-128.5 224.38,-128.5"/>
<polygon fill="black" stroke="black" points="224.18,-132 234.18,-128.5 224.18,-125 224.18,-132"/>
</g>
<!-- 140246387211712 -->
<g id="node13" class="node">
<title>140246387211712</title>
<polygon fill="none" stroke="black" points="328.5,-55.5 328.5,-91.5 537.5,-91.5 537.5,-55.5 328.5,-55.5"/>
<text text-anchor="middle" x="352" y="-69.8" font-family="Times,serif" font-size="14.00">x2w2</text>
<polyline fill="none" stroke="black" points="375.5,-55.5 375.5,-91.5"/>
<text text-anchor="middle" x="415.5" y="-69.8" font-family="Times,serif" font-size="14.00">data 0.0000</text>
<polyline fill="none" stroke="black" points="455.5,-55.5 455.5,-91.5"/>
<text text-anchor="middle" x="496.5" y="-69.8" font-family="Times,serif" font-size="14.00">grad 0.5000</text>
</g>
<!-- 140246387211712&#45;&gt;140246387211856+ -->
<g id="edge13" class="edge">
<title>140246387211712&#45;&gt;140246387211856+</title>
<path fill="none" stroke="black" d="M537.05,-90.06C547.04,-91.67 556.65,-93.21 565.28,-94.6"/>
<polygon fill="black" stroke="black" points="564.45,-98.01 574.88,-96.14 565.56,-91.1 564.45,-98.01"/>
</g>
<!-- 140246387211712*&#45;&gt;140246387211712 -->
<g id="edge5" class="edge">
<title>140246387211712*&#45;&gt;140246387211712</title>
<path fill="none" stroke="black" d="M290.25,-73.5C298.16,-73.5 307.4,-73.5 317.3,-73.5"/>
<polygon fill="black" stroke="black" points="317.2,-77 327.2,-73.5 317.2,-70 317.2,-77"/>
</g>
<!-- 140246387209696 -->
<g id="node15" class="node">
<title>140246387209696</title>
<polygon fill="none" stroke="black" points="4,-0.5 4,-36.5 196,-36.5 196,-0.5 4,-0.5"/>
<text text-anchor="middle" x="19" y="-14.8" font-family="Times,serif" font-size="14.00">x2</text>
<polyline fill="none" stroke="black" points="34,-0.5 34,-36.5"/>
<text text-anchor="middle" x="74" y="-14.8" font-family="Times,serif" font-size="14.00">data 0.0000</text>
<polyline fill="none" stroke="black" points="114,-0.5 114,-36.5"/>
<text text-anchor="middle" x="155" y="-14.8" font-family="Times,serif" font-size="14.00">grad 0.5000</text>
</g>
<!-- 140246387209696&#45;&gt;140246387211712* -->
<g id="edge6" class="edge">
<title>140246387209696&#45;&gt;140246387211712*</title>
<path fill="none" stroke="black" d="M169.02,-36.42C179.47,-39.56 190.08,-42.95 200,-46.5 209.96,-50.06 220.59,-54.46 230.18,-58.66"/>
<polygon fill="black" stroke="black" points="228.54,-61.76 239.1,-62.66 231.4,-55.37 228.54,-61.76"/>
</g>
</g>
</svg>
